# xmcd
#
# Track frame offsets:
#	150
#	32986
#	58144
#	91082
#	128929
#	147092
#	178070
#	205747
#	235203
#	261148
#	295371
#
# Disc length: 4357 seconds
#
# Revision: 0
# Processed by: cddbd v1.5.1PL2 Copyright (c) Steve Scherf et al.
# Submitted via: EasyCDDAExtractor 9.0.0.1
#
DISCID=a411030b
DTITLE=Various Artist - DMC 2006-02-01
DYEAR=2006
DGENRE=Dance
TTITLE0=SUNPORT - FOLLOW ME(VENDEX REMIX)
TTITLE1=HORIZON - I LIVE ON MY OWN(ESP.EXTENDED MIX)
TTITLE2=VINYLSHAKERZ - DADDY COOL(XXL REMIX)
TTITLE3=PANORAMIX - 7 DAYS OF LOVE(ORIGINAL VOCAL MIX)
TTITLE4=HYPPO - THE LION SLEEPS TONIGHT(M@D EXTENTED MIX)
TTITLE5=DAVE MCCULLEN - B*TCH(HOXTON WHORES 7 YEAR BITCH)
TTITLE6=PORNO - MUSIC POWER(ANDY VAN RMX)
TTITLE7=THE POT - CRAZY MAN(LIL'LOVE EXTENDED MIX)
TTITLE8=RICO BASS VS FUN FUN - HAPPY STATION(RIBAS HELFIGER STUHLGANG RMX)
TTITLE9=TOM NOVY FEAT MICHAEL MARSHALL - YOUR BODY(ANDY VAN REMIX)
TTITLE10=CARL FATH - SIGH(BY THE BEACH MIX)
EXTD=
EXTT0=
EXTT1=
EXTT2=
EXTT3=
EXTT4=
EXTT5=
EXTT6=
EXTT7=
EXTT8=
EXTT9=
EXTT10=
PLAYORDER=
